<?xml version="1.0" encoding="UTF-8"?><svg id="Capa_2" xmlns="http://www.w3.org/2000/svg" viewBox="0 0 155.16 20.51"><defs><style>.cls-1,.cls-2{fill:#1a9dd9;}.cls-3,.cls-4{fill:#191d39;}.cls-5{fill:#1b385a;}.cls-4,.cls-2{fill-rule:evenodd;}.cls-6{fill:none;stroke:#dadada;stroke-miterlimit:10;stroke-width:.5px;}</style></defs><g id="Capa_1-2"><g><g><path class="cls-1" d="m81.77,13.5c-.1-.09-.15-.23-.15-.41,0-.09.01-.18.04-.29s.05-.17.05-.2l.19-.65h-.69c-.27,0-.41-.12-.41-.36v-.1c0-.24.14-.36.41-.36h.9l.47-1.63h-.69c-.27,0-.4-.12-.4-.36v-.1c0-.24.14-.36.41-.36h.91l.46-1.64s.06-.04.13-.04c.13,0,.24.05.34.16.1.1.14.26.12.48l-.08.37-.2.67h1.37l.46-1.64s.06-.04.14-.04c.11,0,.22.05.31.14.1.09.15.23.15.41,0,.11-.03.26-.08.46l-.2.67h.69c.27,0,.41.12.41.36v.1c0,.24-.14.36-.41.36h-.91l-.47,1.63h.7c.27,0,.4.12.4.35v.1c0,.25-.14.37-.41.37h-.91l-.45,1.64s-.07.04-.13.04c-.13,0-.24-.05-.34-.16s-.15-.27-.12-.48c.02-.11.05-.25.09-.4l.18-.64h-1.37l-.46,1.64s-.06.04-.13.04c-.11,0-.22-.04-.32-.13Zm2.51-2.36l.47-1.65h-1.39l-.47,1.65h1.39Z"/><path class="cls-5" d="m89.65,8.01h-1.57c-.15,0-.26-.04-.34-.12-.08-.08-.12-.18-.12-.33v-.06c0-.14.04-.25.12-.32.08-.07.2-.11.35-.11h4.15c.31,0,.47.14.47.43v.06c0,.14-.04.25-.12.33-.08.08-.2.12-.35.12h-1.56v5.1c0,.15-.04.27-.12.36s-.19.12-.34.12h-.14c-.28,0-.42-.16-.42-.48v-5.1Z"/><path class="cls-5" d="m97.26,8.79c.07.07.11.19.11.36v4.34s-.04.04-.11.07c-.08.03-.16.04-.25.04-.29,0-.46-.16-.53-.47-.03-.13-.04-.25-.04-.35-.16.27-.37.49-.62.64s-.55.24-.9.24c-.57,0-.99-.18-1.27-.54-.28-.36-.42-.85-.42-1.47v-2.5c0-.31.14-.47.42-.47h.11c.29,0,.44.16.44.47v2.43c0,.4.09.71.26.92.17.21.43.32.77.32.27,0,.5-.07.7-.21.2-.14.36-.33.47-.57v-2.88c0-.31.14-.47.42-.47h.12c.14,0,.25.04.32.11Z"/><path class="cls-5" d="m99.12,7.67c0-.18.05-.32.15-.43.1-.11.23-.16.4-.16h3.17c.31,0,.47.14.47.41v.08c0,.29-.16.43-.47.43h-2.7v2.05h1.97c.31,0,.47.13.47.4v.08c0,.27-.16.41-.47.41h-1.96v2.17c0,.32-.15.48-.45.48h-.15c-.14,0-.25-.05-.32-.15-.07-.1-.11-.23-.11-.41v-5.36Z"/><path class="cls-5" d="m108.52,8.79c.07.07.11.19.11.36v4.34s-.04.04-.11.07c-.08.03-.16.04-.25.04-.29,0-.46-.16-.53-.47-.03-.13-.04-.25-.04-.35-.16.27-.37.49-.62.64s-.55.24-.9.24c-.57,0-.99-.18-1.27-.54-.28-.36-.42-.85-.42-1.47v-2.5c0-.31.14-.47.42-.47h.11c.29,0,.44.16.44.47v2.43c0,.4.09.71.26.92.17.21.43.32.77.32.27,0,.5-.07.7-.21.2-.14.36-.33.47-.57v-2.88c0-.31.14-.47.42-.47h.12c.14,0,.25.04.32.11Z"/><path class="cls-5" d="m110.61,12.17v-2.63h-.35c-.25,0-.38-.12-.38-.36v-.09c0-.12.03-.21.09-.27s.16-.09.29-.09h.35v-.74c0-.31.14-.47.43-.47h.11c.14,0,.25.04.32.11s.11.19.11.36v.74h.98c.25,0,.38.12.38.35v.09c0,.25-.13.37-.38.37h-.99v2.42c0,.31.04.54.13.67.09.13.24.2.45.2.13,0,.25-.03.36-.09.11-.06.2-.14.26-.23.02,0,.05,0,.08.04.04.03.07.08.11.15.03.07.05.15.05.24,0,.18-.07.33-.21.45-.2.18-.48.27-.85.27-.89,0-1.34-.5-1.34-1.49Z"/><path class="cls-5" d="m118.04,8.79c.07.07.11.19.11.36v4.34s-.04.04-.12.07c-.08.03-.16.04-.25.04-.29,0-.46-.16-.53-.47-.03-.13-.04-.25-.04-.35-.16.27-.37.49-.62.64-.25.16-.55.24-.9.24-.57,0-.99-.18-1.27-.54-.28-.36-.42-.85-.42-1.47v-2.5c0-.31.14-.47.42-.47h.11c.29,0,.44.16.44.47v2.43c0,.4.09.71.26.92.17.21.43.32.77.32.27,0,.5-.07.7-.21.2-.14.36-.33.47-.57v-2.88c0-.31.14-.47.42-.47h.12c.14,0,.25.04.32.11Z"/><path class="cls-5" d="m122.44,8.8c.14.12.21.28.21.47,0,.13-.02.23-.07.32s-.1.15-.15.19c-.05.04-.09.06-.1.05-.13-.15-.32-.22-.55-.22-.64,0-.96.6-.96,1.79v1.72c0,.31-.14.47-.43.47h-.11c-.29,0-.44-.16-.44-.47v-4.33s.04-.04.11-.07.15-.04.24-.04c.29,0,.47.17.53.5.03.2.04.36.04.48.09-.34.23-.6.42-.78.19-.18.43-.26.72-.26.23,0,.41.06.54.18Z"/><path class="cls-5" d="m123.64,9.83c.2-.38.48-.68.83-.89.36-.21.77-.31,1.24-.31s.87.11,1.22.32c.35.21.63.51.83.9.2.38.29.83.29,1.33s-.1.93-.29,1.3-.47.67-.83.88-.76.32-1.22.32-.88-.11-1.24-.32-.63-.5-.83-.88c-.2-.38-.29-.82-.29-1.32s.1-.93.29-1.31Zm3.08.06c-.25-.31-.59-.47-1.01-.47s-.76.16-1.02.46c-.26.31-.38.73-.38,1.25s.13.94.38,1.25c.26.31.6.47,1.02.47s.75-.15,1-.46.38-.72.38-1.25-.13-.95-.38-1.26Z"/><path class="cls-5" d="m129.24,13.54c-.09-.04-.16-.09-.21-.14-.05-.05-.07-.09-.05-.12l2.07-5.93c.04-.11.12-.19.23-.25.11-.06.28-.08.5-.08s.4.03.51.08.18.14.22.25l2.1,5.93s0,.07-.06.12c-.05.05-.12.1-.21.14s-.19.06-.29.06c-.27,0-.45-.16-.56-.49l-.53-1.46h-2.34l-.54,1.48c-.1.31-.28.47-.53.47-.11,0-.21-.02-.29-.06Zm3.47-2.7l-.95-2.83-.96,2.83h1.91Z"/><path class="cls-5" d="m139.53,9.17c.28.36.42.85.42,1.46v2.5c0,.17-.04.29-.11.36-.07.07-.17.11-.31.11h-.12c-.29,0-.44-.16-.44-.47v-2.44c0-.38-.08-.68-.25-.89-.17-.21-.42-.32-.75-.32s-.62.11-.83.32c-.22.21-.33.5-.35.86v2.47c0,.31-.14.47-.43.47h-.11c-.29,0-.44-.16-.44-.47v-6.32s.04-.04.12-.08c.08-.03.16-.04.25-.04.17,0,.32.06.44.19.12.12.17.33.17.63v2.01c.15-.28.34-.5.59-.66.25-.16.54-.23.88-.23.57,0,.99.18,1.28.54Z"/><path class="cls-5" d="m141.61,9.83c.2-.38.47-.68.83-.89.36-.21.77-.31,1.24-.31s.87.11,1.22.32c.35.21.63.51.83.9.2.38.29.83.29,1.33s-.1.93-.29,1.3c-.2.38-.47.67-.83.88-.36.21-.77.32-1.23.32s-.88-.11-1.23-.32c-.36-.21-.63-.5-.83-.88-.2-.38-.29-.82-.29-1.32s.1-.93.29-1.31Zm3.08.06c-.25-.31-.59-.47-1.01-.47s-.76.16-1.01.46-.38.73-.38,1.25.13.94.38,1.25.59.47,1.01.47.75-.15,1-.46c.26-.31.39-.72.39-1.25s-.13-.95-.38-1.26Z"/><path class="cls-5" d="m150.03,8.8c.14.12.21.28.21.47,0,.13-.02.23-.07.32-.05.09-.1.15-.15.19-.05.04-.09.06-.1.05-.13-.15-.32-.22-.55-.22-.64,0-.96.6-.96,1.79v1.72c0,.31-.14.47-.43.47h-.11c-.29,0-.44-.16-.44-.47v-4.33s.04-.04.11-.07c.07-.03.15-.04.24-.04.29,0,.47.17.53.5.03.2.04.36.04.48.09-.34.23-.6.42-.78s.43-.26.72-.26c.23,0,.41.06.54.18Z"/><path class="cls-5" d="m151.8,11.1c.49-.25,1.24-.39,2.26-.4h.12v-.16c0-.36-.09-.64-.27-.83s-.44-.29-.79-.29c-.31,0-.56.07-.76.22-.2.15-.35.34-.45.58-.12.01-.26,0-.42-.06s-.24-.19-.24-.41c0-.09.03-.19.08-.3.05-.11.13-.2.22-.29.17-.16.4-.29.67-.39.28-.1.59-.15.95-.15.67,0,1.17.17,1.5.5s.5.82.5,1.44v2.92s-.04.05-.12.08c-.08.03-.16.04-.25.04-.29,0-.46-.15-.52-.44-.03-.11-.05-.26-.06-.43-.15.29-.37.52-.65.67-.28.16-.6.23-.96.23-.47,0-.85-.12-1.12-.37-.28-.25-.42-.58-.42-.99,0-.54.24-.94.73-1.19Zm2.39.17h-.19c-.68.02-1.18.11-1.49.25-.31.15-.47.39-.47.71,0,.23.08.4.22.53.15.13.36.19.62.19.37,0,.69-.12.94-.35s.38-.52.38-.87v-.46Z"/></g><g id="Capa_2-2"><g id="Capa_1-2"><path id="Trazado_1" class="cls-4" d="m15.54,14.01l-.46-1.15h-3.74l-.46,1.15c-.09.33-.25.64-.46.92-.15.16-.36.24-.58.23-.26.02-.52-.09-.69-.29-.17-.14-.28-.35-.29-.58,0-.14.01-.27.06-.4.06-.11.11-.34.23-.58l2.36-5.98c.06-.22.14-.43.23-.63.07-.22.17-.43.29-.63.13-.16.28-.3.46-.4.19-.12.41-.18.63-.17.22,0,.44.06.63.17.16.1.3.24.4.4.11.17.17.34.29.52.06.17.17.4.29.69l2.41,5.92c.16.31.25.64.29.98-.01.22-.12.43-.29.58-.17.17-.39.28-.63.29-.12,0-.24-.01-.34-.06-.11-.06-.21-.14-.29-.23-.1-.12-.18-.26-.23-.4-.07-.1-.11-.22-.11-.34m-3.74-2.59h2.76l-1.38-3.8-1.38,3.8Z"/><path id="Trazado_2" class="cls-4" d="m3.92,15.16H1.16c-.32.05-.64-.06-.86-.29-.2-.24-.31-.55-.29-.86v-6.9c-.05-.32.06-.64.29-.86.22-.23.55-.34.86-.29h2.99c.38,0,.77,0,1.15.06.3.07.58.17.86.29.23.12.43.3.58.52.17.19.3.4.4.63.07.24.1.49.11.75.03.9-.53,1.72-1.38,2.01,1.21.4,1.78,1.15,1.78,2.24.02.49-.12.98-.4,1.38-.25.42-.63.75-1.09.92-.31.14-.64.21-.98.23-.4.15-.84.21-1.27.17m-.11-4.08h-1.96v2.7h2.01c1.27,0,1.9-.46,1.9-1.38.04-.42-.16-.82-.52-1.04-.44-.24-.94-.34-1.44-.29m-1.96-3.74v2.36h1.73c.37,0,.73-.05,1.09-.11.24-.11.44-.29.58-.52.12-.17.18-.37.17-.58.05-.39-.16-.76-.52-.92-.47-.19-.99-.27-1.5-.23h-1.55Z"/><path id="Trazado_3" class="cls-4" d="m30.32,11.6h-1.73v2.59c.04.31-.04.62-.23.86-.37.35-.95.35-1.32,0h0c-.19-.25-.29-.55-.29-.86v-7.07c-.06-.32.05-.64.29-.86.27-.19.59-.29.92-.29h2.41c.54,0,1.08.06,1.61.17.35.11.68.29.98.52.27.26.49.57.63.92.14.37.21.76.23,1.15.05.8-.27,1.59-.86,2.13-.78.52-1.71.79-2.65.75m-.4-4.26h-1.26v2.82h1.26c.37,0,.73-.05,1.09-.11.26-.08.48-.24.63-.46.16-.24.24-.52.23-.81,0-.36-.12-.7-.34-.98-.46-.35-1.04-.51-1.61-.46"/><path id="Trazado_4" class="cls-4" d="m48.15,11.25h-.63v2.93c.01.3-.07.61-.23.86-.38.38-.99.38-1.37,0,0,0,0,0,0,0-.19-.25-.27-.56-.23-.86v-7.07c-.02-.31.08-.62.29-.86.24-.2.55-.31.86-.29h3.05c.37,0,.73.01,1.09.06.28.04.55.12.81.23.28.12.54.29.75.52.22.23.4.5.52.81.11.29.17.61.17.92.04.61-.17,1.21-.58,1.67-.48.45-1.08.75-1.73.86.36.2.67.48.92.81.3.34.57.71.81,1.09.21.33.41.68.58,1.04.11.19.17.41.17.63-.01.12-.05.24-.11.34-.07.12-.17.22-.29.29-.15.07-.3.1-.46.11-.19,0-.37-.06-.52-.17-.11-.11-.29-.23-.34-.34-.15-.22-.29-.45-.4-.69l-.75-1.27-.69-1.04c-.17-.22-.39-.4-.63-.52-.26-.09-.53-.13-.81-.11m.92-3.8h-1.72v2.47h1.67c.39,0,.77-.05,1.15-.11.27-.04.52-.18.69-.4.16-.24.24-.52.23-.81,0-.24-.06-.48-.17-.69-.14-.18-.32-.34-.52-.46-.44-.06-.88-.06-1.32,0"/><path id="Trazado_5" class="cls-4" d="m61.2,7.51h-2.01v6.67c.01.3-.07.61-.23.86-.18.19-.43.29-.69.29-.26,0-.5-.11-.69-.29-.19-.25-.27-.56-.23-.86v-6.67h-2.01c-.25.01-.5-.07-.69-.23-.16-.15-.24-.36-.23-.58-.01-.22.07-.43.23-.58.2-.15.44-.23.69-.23h5.92c.25-.01.5.07.69.23.29.31.29.79,0,1.09h0c-.21.18-.47.28-.75.29"/><path id="Trazado_6" class="cls-4" d="m36.59,10.56c0,1.65,1.34,2.99,2.99,2.99s2.99-1.34,2.99-2.99-1.34-2.99-2.99-2.99h0c-1.65,0-2.98,1.34-2.99,2.99m-1.78,0c0-2.64,2.14-4.77,4.77-4.77s4.77,2.14,4.77,4.77-2.14,4.77-4.77,4.77c-2.63,0-4.77-2.12-4.77-4.75,0,0,0-.02,0-.02h0"/><path id="Trazado_7" class="cls-3" d="m19.97,4.75c0-.7.57-1.27,1.27-1.27s1.27.57,1.27,1.27-.57,1.27-1.27,1.27c-.7,0-1.26-.57-1.27-1.27h0"/><path id="Trazado_8" class="cls-4" d="m20.26,14.19v-2.93l-2.24-3.51c-.17-.23-.3-.48-.4-.75-.07-.14-.11-.3-.11-.46-.01-.22.07-.43.23-.58.17-.16.4-.24.63-.23.22-.01.43.07.58.23.21.27.4.56.58.86l1.73,2.82,1.72-2.82.29-.46c.06-.11.17-.23.23-.34.07-.11.17-.19.29-.23.15-.05.31-.07.46-.06.22-.01.43.07.58.23.15.13.24.32.23.52-.01.18-.05.35-.11.52-.11.24-.25.47-.4.69l-2.3,3.57v2.93c.02.31-.08.62-.29.86-.18.19-.43.29-.69.29-.26,0-.5-.11-.69-.29-.2-.24-.31-.55-.29-.86"/><path id="Trazado_9" class="cls-2" d="m16.57,4.7C16.55,2.12,18.62.02,21.2,0c2.57-.02,4.68,2.05,4.7,4.62,0,.03,0,.05,0,.08h-1.84c-.07-1.56-1.38-2.76-2.93-2.7-1.46.08-2.62,1.24-2.7,2.7h-1.84Z"/></g></g><line class="cls-6" x1="70.75" y1=".09" x2="70.75" y2="20.51"/></g></g></svg>